<svg width="570" height="407" viewBox="0 0 570 407" fill="none" xmlns="http://www.w3.org/2000/svg">
<path d="M327.457 98.7789H333.397V57.1961H327.457C322.921 57.1961 318.571 59.0198 315.363 62.266C312.156 65.5122 310.354 69.9149 310.354 74.5057V81.4275C310.349 83.7042 310.787 85.9595 311.644 88.0645C312.501 90.1694 313.76 92.0825 315.349 93.6943C316.937 95.3061 318.825 96.5848 320.902 97.4573C322.98 98.3298 325.207 98.7789 327.457 98.7789Z" fill="#DFE6F5"/>
<path d="M334.143 98.7782H332.651C330.279 98.7782 328.355 96.8316 328.355 94.4304V61.5785C328.355 59.1773 330.279 57.2307 332.651 57.2307H334.143C336.515 57.2307 338.439 59.1773 338.439 61.5785V94.4304C338.439 96.8316 336.515 98.7782 334.143 98.7782Z" fill="#535461"/>
<g opacity="0.1">
<path d="M327.458 98.7789H333.398V57.1961H327.458C322.922 57.1961 318.572 59.0198 315.365 62.266C312.157 65.5122 310.355 69.9149 310.355 74.5057V81.4275C310.35 83.7042 310.788 85.9595 311.645 88.0645C312.502 90.1694 313.761 92.0825 315.35 93.6943C316.939 95.3061 318.826 96.5848 320.903 97.4573C322.981 98.3298 325.208 98.7789 327.458 98.7789Z" fill="#F2F2F2"/>
<path d="M334.144 98.7789H332.652C330.279 98.7789 328.356 96.8324 328.356 94.4312V61.5792C328.356 59.178 330.279 57.2315 332.652 57.2315H334.144C336.516 57.2315 338.44 59.178 338.44 61.5792V94.4312C338.44 96.8324 336.516 98.7789 334.144 98.7789Z" fill="#F2F2F2"/>
</g>
<path d="M324.631 79.2068H428.451V188.202H324.631V79.2068Z" fill="#090814"/>
<path d="M328.175 169.603L334.444 215.696L337.397 237.362L338.483 245.319L347.585 263.277L364.298 296.232L396.534 300.151L453.248 219.206C453.248 219.206 482.941 161.772 437.796 166.988C412.483 169.919 406.459 146.986 406.007 126.272C405.893 115.843 406.827 105.429 408.793 95.1912L363.654 117.385C364.703 122.333 365.492 126.878 366.022 131.022C368.222 147.979 366.398 158.552 362.581 164.958C352.422 182.021 328.175 169.603 328.175 169.603Z" fill="#ED9DA0"/>
<path d="M380.409 131.748C351.561 131.748 328.175 108.079 328.175 78.8816C328.175 49.6844 351.561 26.0155 380.409 26.0155C409.256 26.0155 432.642 49.6844 432.642 78.8816C432.642 108.079 409.256 131.748 380.409 131.748Z" fill="#ED9DA0"/>
<path d="M336.405 322.425C337.979 328.77 334.009 339.671 328.745 350.377C353.988 353.125 381.669 351.695 381.669 351.695L410.073 359.532L490.031 383.027C493.512 378.467 496.3 372.737 498.603 366.281L490.679 356.921C465.745 341.501 457.595 322.224 456.404 305.253C455.93 297.55 456.673 289.821 458.604 282.355C460.144 276.047 462.47 269.963 465.526 264.248L391.301 264.601H390.674L384.574 278.634L384.295 279.268L379.755 289.706L364.282 261.641L358.913 252.86L355.905 247.927C355.905 247.927 311.408 237.468 310.76 264.25C310.683 267.323 310.802 270.397 311.116 273.454C313.33 294.993 324.974 309.314 334.618 319.076C335.506 320.005 336.124 321.164 336.405 322.425Z" fill="#2563EB"/>
<path d="M168.889 356.266C170.177 371.927 207.578 351.044 207.578 351.044C207.578 351.044 219.187 347.125 258.524 321.675C278.496 308.757 294.245 290.147 303.788 268.189C305.293 264.795 306.552 261.295 307.555 257.716L280.453 237.467L272.549 249.695L246.275 290.326L207.586 316.403C207.586 316.403 167.601 340.605 168.889 356.266Z" fill="#ED9DA0"/>
<path d="M1.14349 394.96H568.285L511.506 375.194L369.569 325.774L279.058 294.259H162.48L1.14349 394.96Z" fill="#F2F2F2"/>
<path d="M568.522 394.959L570 407H0L0.983093 394.959H568.522Z" fill="#F2F2F2"/>
<path opacity="0.1" d="M334.456 215.696L338.494 245.297L347.596 263.255C353.236 261.793 359.069 261.239 364.879 261.612C358.468 260.718 354.322 220.154 354.322 220.154L353.953 220.069L334.456 215.696Z" fill="black"/>
<path d="M275.292 249.23C288.187 247.271 303.022 266.201 303.022 266.201C303.022 266.201 320.431 283.172 332.039 271.423C343.285 260.041 363 261.556 364.225 261.627C357.813 260.725 353.668 220.164 353.668 220.164L353.299 220.079L291.413 206.153C291.413 206.153 287.722 211.876 283.558 219.163C276.045 232.293 266.992 250.491 275.292 249.23Z" fill="#2563EB"/>
<path opacity="0.1" d="M328.174 169.603L334.443 215.696L337.396 237.361C346.044 236.706 356.532 235.529 356.532 235.529C356.532 235.529 345.571 189.189 363.628 165.05C363.628 165.05 363.245 165.05 362.556 164.978C352.421 182.022 328.174 169.603 328.174 169.603Z" fill="black"/>
<path d="M362.992 165.036C362.992 165.036 330.103 162.428 317.207 171.562C304.31 180.697 288.625 208.989 288.625 208.989L283.688 219.676C283.688 219.676 291.403 220.51 290.762 221.821C290.121 223.131 301.082 229.651 306.236 227.691C311.389 225.731 324.292 236.149 325.581 237.481C326.87 238.812 355.886 235.521 355.886 235.521C355.886 235.521 344.936 189.182 362.992 165.036Z" fill="#2563EB"/>
<path d="M293.352 340.606C308.184 358.226 384.275 354.314 384.275 354.314L412.652 362.137L492.61 385.635C511.417 360.967 510.997 302.181 509.973 278.401C509.695 272.016 509.381 268.154 509.381 268.154C509.381 268.154 482.3 251.182 470.044 268.154C467.858 271.177 466.026 275.406 464.473 280.311C457.363 302.928 456.494 339.944 456.494 339.944L424.252 336.68L377.408 325.403C374.18 324.626 370.873 324.236 367.555 324.24C348.135 324.297 280.62 325.481 293.352 340.606Z" fill="#ED9DA0"/>
<path d="M384.305 277.954C384.305 277.954 390.105 279.257 401.713 276.65C413.322 274.043 417.834 279.258 424.282 281.872C430.73 284.487 447.499 285.791 453.947 283.176C460.396 280.561 466.842 275.346 480.409 281.217C493.976 287.088 502.977 275.339 516.515 276.622C530.053 277.905 539.084 271.399 539.084 271.399L524.697 237.767L520.38 227.667L412.489 220.2H411.974L384.305 277.954Z" fill="#2563EB"/>
<path d="M432.642 169.603C432.642 169.603 468.108 162.421 484.869 171.562C501.63 180.703 514.527 200.93 514.527 200.93C514.527 200.93 524.688 228.231 523.286 236.17C521.884 244.108 499.701 236.17 499.701 236.17C499.701 236.17 471.972 229.643 468.101 239.433C464.229 249.223 446.172 244 446.172 244C446.172 244 408.771 233.555 401.675 245.304L432.642 169.603Z" fill="#2563EB"/>
<path d="M310.855 222.427C314.045 230.926 323.501 235.162 332.345 236.775C341.064 238.361 349.999 238.279 358.688 236.536C350.991 228.425 346.009 218.07 344.447 206.935C342.073 189.631 348.18 171.971 345.666 154.696C343.083 136.959 331.663 121.395 329.685 103.576C333.612 106.141 338.132 101.264 340.193 97.0146C343.971 89.2012 347.162 81.1108 349.739 72.812C352.936 62.5079 355.794 50.9651 364.585 44.8458C366.138 43.7606 368.234 42.8867 369.843 43.894C371.02 44.5984 371.481 46.0859 371.82 47.4176C374.842 59.3989 390.121 68.8147 394.446 80.395C398.561 91.3827 405.986 100.834 410.047 111.864C419.35 137.095 394.797 168.205 393.334 195.1C392.68 206.976 393.655 218.879 394.629 230.727C394.79 232.622 395.089 234.764 396.642 235.829C397.66 236.388 398.817 236.633 399.97 236.534C405.188 236.565 410.373 235.687 415.297 233.938C417.282 233.234 419.273 232.374 421.376 232.338C424.482 232.289 427.309 234.015 430.289 234.918C440.338 237.977 450.797 231.429 458.095 223.803C465.393 216.178 471.576 206.938 480.963 202.223C484.034 200.672 488.052 198.431 487.232 195.055C486.837 193.907 486.147 192.887 485.232 192.1C481.43 188.231 477.433 184.488 474.321 180.034C469.627 173.303 467.183 165.275 464.801 157.394C461.361 145.99 457.887 134.305 458.532 122.401C458.839 116.502 460.162 110.702 460.67 104.781C461.673 93.054 459.402 81.3259 457.146 69.7816C455.614 61.916 453.949 53.7619 449.167 47.3693C445.915 43.0281 441.445 39.8073 437.796 35.7969C432.35 29.8124 428.938 22.272 424.523 15.4706C420.108 8.66918 414.122 2.22758 406.264 0.500729C401.508 -0.549079 396.557 0.254138 391.752 1.06457C387.915 1.71998 383.987 2.3963 380.359 3.88377C377.498 5.0374 374.865 7.89409 371.933 8.43702C366.098 9.54379 359.684 7.22498 353.438 8.71894C341.286 11.6153 330.2 19.8616 324.811 31.385C323.756 33.6659 322.867 36.0214 322.151 38.433C321.12 41.816 320.333 45.2762 319.553 48.7299C319.386 49.4343 319.226 50.1957 319.073 50.9218C314.3 73.8698 317.381 90.578 319.463 114.452C321.544 138.326 322.053 170.306 315.493 193.388C312.756 203.031 307.346 213.075 310.855 222.427Z" fill="#090814"/>
<path d="M396.202 265.87V308.947C396.191 315.983 398.533 322.816 402.845 328.336C403.582 329.277 404.37 330.176 405.206 331.028C408.082 333.952 411.5 336.272 415.264 337.855C419.029 339.438 423.065 340.253 427.141 340.253C431.218 340.253 435.254 339.438 439.018 337.855C442.782 336.272 446.201 333.952 449.077 331.028C449.913 330.176 450.701 329.277 451.438 328.336C455.764 322.822 458.12 315.988 458.122 308.947V265.87C458.137 258.55 455.605 251.459 450.97 245.84C450.148 244.843 449.261 243.901 448.317 243.021C442.585 237.582 435.023 234.555 427.165 234.555C419.308 234.555 411.746 237.582 406.014 243.021C405.763 243.246 405.519 243.493 405.276 243.725C404.579 244.43 403.973 245.135 403.361 245.839C398.724 251.457 396.189 258.549 396.202 265.87Z" fill="#F2F2F2"/>
<path opacity="0.1" d="M440.706 246.29C439.637 246.29 438.77 245.413 438.77 244.331C438.77 243.249 439.637 242.372 440.706 242.372C441.775 242.372 442.642 243.249 442.642 244.331C442.642 245.413 441.775 246.29 440.706 246.29Z" fill="black"/>
<path opacity="0.1" d="M440.706 252.817C439.637 252.817 438.77 251.94 438.77 250.858C438.77 249.776 439.637 248.899 440.706 248.899C441.775 248.899 442.642 249.776 442.642 250.858C442.642 251.94 441.775 252.817 440.706 252.817Z" fill="black"/>
<path opacity="0.1" d="M440.706 259.343C439.637 259.343 438.77 258.466 438.77 257.384C438.77 256.302 439.637 255.425 440.706 255.425C441.775 255.425 442.642 256.302 442.642 257.384C442.642 258.466 441.775 259.343 440.706 259.343Z" fill="black"/>
<path opacity="0.1" d="M440.706 265.869C439.637 265.869 438.77 264.992 438.77 263.91C438.77 262.828 439.637 261.951 440.706 261.951C441.775 261.951 442.642 262.828 442.642 263.91C442.642 264.992 441.775 265.869 440.706 265.869Z" fill="black"/>
<path opacity="0.1" d="M440.706 272.396C439.637 272.396 438.77 271.519 438.77 270.437C438.77 269.355 439.637 268.478 440.706 268.478C441.775 268.478 442.642 269.355 442.642 270.437C442.642 271.519 441.775 272.396 440.706 272.396Z" fill="black"/>
<path opacity="0.1" d="M440.706 278.922C439.637 278.922 438.77 278.045 438.77 276.963C438.77 275.881 439.637 275.004 440.706 275.004C441.775 275.004 442.642 275.881 442.642 276.963C442.642 278.045 441.775 278.922 440.706 278.922Z" fill="black"/>
<path opacity="0.1" d="M440.706 285.449C439.637 285.449 438.77 284.572 438.77 283.49C438.77 282.408 439.637 281.531 440.706 281.531C441.775 281.531 442.642 282.408 442.642 283.49C442.642 284.572 441.775 285.449 440.706 285.449Z" fill="black"/>
<path opacity="0.1" d="M440.706 291.982C439.637 291.982 438.77 291.105 438.77 290.023C438.77 288.941 439.637 288.064 440.706 288.064C441.775 288.064 442.642 288.941 442.642 290.023C442.642 291.105 441.775 291.982 440.706 291.982Z" fill="black"/>
<path opacity="0.1" d="M440.706 298.508C439.637 298.508 438.77 297.631 438.77 296.549C438.77 295.467 439.637 294.59 440.706 294.59C441.775 294.59 442.642 295.467 442.642 296.549C442.642 297.631 441.775 298.508 440.706 298.508Z" fill="black"/>
<path opacity="0.1" d="M440.706 305.034C439.637 305.034 438.77 304.157 438.77 303.075C438.77 301.994 439.637 301.116 440.706 301.116C441.775 301.116 442.642 301.994 442.642 303.075C442.642 304.157 441.775 305.034 440.706 305.034Z" fill="black"/>
<path opacity="0.1" d="M440.706 311.56C439.637 311.56 438.77 310.683 438.77 309.601C438.77 308.52 439.637 307.642 440.706 307.642C441.775 307.642 442.642 308.52 442.642 309.601C442.642 310.683 441.775 311.56 440.706 311.56Z" fill="black"/>
<path opacity="0.1" d="M440.706 318.086C439.637 318.086 438.77 317.209 438.77 316.127C438.77 315.046 439.637 314.168 440.706 314.168C441.775 314.168 442.642 315.046 442.642 316.127C442.642 317.209 441.775 318.086 440.706 318.086Z" fill="black"/>
<path opacity="0.1" d="M440.706 324.614C439.637 324.614 438.77 323.737 438.77 322.655C438.77 321.573 439.637 320.696 440.706 320.696C441.775 320.696 442.642 321.573 442.642 322.655C442.642 323.737 441.775 324.614 440.706 324.614Z" fill="black"/>
<path opacity="0.1" d="M440.706 331.141C439.637 331.141 438.77 330.263 438.77 329.182C438.77 328.1 439.637 327.223 440.706 327.223C441.775 327.223 442.642 328.1 442.642 329.182C442.642 330.263 441.775 331.141 440.706 331.141Z" fill="black"/>
<path opacity="0.1" d="M447.794 244.333C447.795 244.705 447.899 245.068 448.096 245.382C448.293 245.696 448.574 245.946 448.906 246.104C449.238 246.262 449.608 246.322 449.972 246.275C450.337 246.228 450.68 246.078 450.963 245.841C450.142 244.844 449.256 243.901 448.313 243.021C447.981 243.375 447.796 243.845 447.794 244.333Z" fill="black"/>
<path opacity="0.1" d="M449.731 252.817C448.662 252.817 447.796 251.94 447.796 250.858C447.796 249.776 448.662 248.899 449.731 248.899C450.8 248.899 451.667 249.776 451.667 250.858C451.667 251.94 450.8 252.817 449.731 252.817Z" fill="black"/>
<path opacity="0.1" d="M449.731 259.343C448.662 259.343 447.796 258.466 447.796 257.384C447.796 256.302 448.662 255.425 449.731 255.425C450.8 255.425 451.667 256.302 451.667 257.384C451.667 258.466 450.8 259.343 449.731 259.343Z" fill="black"/>
<path opacity="0.1" d="M449.731 265.869C448.662 265.869 447.796 264.992 447.796 263.91C447.796 262.828 448.662 261.951 449.731 261.951C450.8 261.951 451.667 262.828 451.667 263.91C451.667 264.992 450.8 265.869 449.731 265.869Z" fill="black"/>
<path opacity="0.1" d="M449.731 272.396C448.662 272.396 447.796 271.519 447.796 270.437C447.796 269.355 448.662 268.478 449.731 268.478C450.8 268.478 451.667 269.355 451.667 270.437C451.667 271.519 450.8 272.396 449.731 272.396Z" fill="black"/>
<path opacity="0.1" d="M449.731 278.922C448.662 278.922 447.796 278.045 447.796 276.963C447.796 275.881 448.662 275.004 449.731 275.004C450.8 275.004 451.667 275.881 451.667 276.963C451.667 278.045 450.8 278.922 449.731 278.922Z" fill="black"/>
<path opacity="0.1" d="M449.731 285.449C448.662 285.449 447.796 284.572 447.796 283.49C447.796 282.408 448.662 281.531 449.731 281.531C450.8 281.531 451.667 282.408 451.667 283.49C451.667 284.572 450.8 285.449 449.731 285.449Z" fill="black"/>
<path opacity="0.1" d="M449.731 291.982C448.662 291.982 447.796 291.105 447.796 290.023C447.796 288.941 448.662 288.064 449.731 288.064C450.8 288.064 451.667 288.941 451.667 290.023C451.667 291.105 450.8 291.982 449.731 291.982Z" fill="black"/>
<path opacity="0.1" d="M449.731 298.508C448.662 298.508 447.796 297.631 447.796 296.549C447.796 295.467 448.662 294.59 449.731 294.59C450.8 294.59 451.667 295.467 451.667 296.549C451.667 297.631 450.8 298.508 449.731 298.508Z" fill="black"/>
<path opacity="0.1" d="M449.731 305.034C448.662 305.034 447.796 304.157 447.796 303.075C447.796 301.994 448.662 301.116 449.731 301.116C450.8 301.116 451.667 301.994 451.667 303.075C451.667 304.157 450.8 305.034 449.731 305.034Z" fill="black"/>
<path opacity="0.1" d="M449.731 311.56C448.662 311.56 447.796 310.683 447.796 309.601C447.796 308.52 448.662 307.642 449.731 307.642C450.8 307.642 451.667 308.52 451.667 309.601C451.667 310.683 450.8 311.56 449.731 311.56Z" fill="black"/>
<path opacity="0.1" d="M449.731 318.086C448.662 318.086 447.796 317.209 447.796 316.127C447.796 315.046 448.662 314.168 449.731 314.168C450.8 314.168 451.667 315.046 451.667 316.127C451.667 317.209 450.8 318.086 449.731 318.086Z" fill="black"/>
<path opacity="0.1" d="M449.731 324.614C448.662 324.614 447.796 323.737 447.796 322.655C447.796 321.573 448.662 320.696 449.731 320.696C450.8 320.696 451.667 321.573 451.667 322.655C451.667 323.737 450.8 324.614 449.731 324.614Z" fill="black"/>
<path opacity="0.1" d="M447.795 329.181C447.794 329.59 447.921 329.99 448.157 330.323C448.394 330.655 448.727 330.904 449.111 331.035C449.947 330.182 450.735 329.284 451.472 328.342C451.285 327.939 450.968 327.612 450.573 327.416C450.178 327.22 449.729 327.167 449.3 327.265C448.871 327.362 448.488 327.606 448.214 327.954C447.94 328.303 447.792 328.736 447.795 329.181Z" fill="black"/>
<path opacity="0.1" d="M431.675 246.29C430.606 246.29 429.739 245.413 429.739 244.331C429.739 243.249 430.606 242.372 431.675 242.372C432.744 242.372 433.61 243.249 433.61 244.331C433.61 245.413 432.744 246.29 431.675 246.29Z" fill="black"/>
<path opacity="0.1" d="M431.675 252.817C430.606 252.817 429.739 251.94 429.739 250.858C429.739 249.776 430.606 248.899 431.675 248.899C432.744 248.899 433.61 249.776 433.61 250.858C433.61 251.94 432.744 252.817 431.675 252.817Z" fill="black"/>
<path opacity="0.1" d="M431.675 259.343C430.606 259.343 429.739 258.466 429.739 257.384C429.739 256.302 430.606 255.425 431.675 255.425C432.744 255.425 433.61 256.302 433.61 257.384C433.61 258.466 432.744 259.343 431.675 259.343Z" fill="black"/>
<path opacity="0.1" d="M431.675 265.869C430.606 265.869 429.739 264.992 429.739 263.91C429.739 262.828 430.606 261.951 431.675 261.951C432.744 261.951 433.61 262.828 433.61 263.91C433.61 264.992 432.744 265.869 431.675 265.869Z" fill="black"/>
<path opacity="0.1" d="M431.675 272.396C430.606 272.396 429.739 271.519 429.739 270.437C429.739 269.355 430.606 268.478 431.675 268.478C432.744 268.478 433.61 269.355 433.61 270.437C433.61 271.519 432.744 272.396 431.675 272.396Z" fill="black"/>
<path opacity="0.1" d="M431.675 278.922C430.606 278.922 429.739 278.045 429.739 276.963C429.739 275.881 430.606 275.004 431.675 275.004C432.744 275.004 433.61 275.881 433.61 276.963C433.61 278.045 432.744 278.922 431.675 278.922Z" fill="black"/>
<path opacity="0.1" d="M431.675 285.449C430.606 285.449 429.739 284.572 429.739 283.49C429.739 282.408 430.606 281.531 431.675 281.531C432.744 281.531 433.61 282.408 433.61 283.49C433.61 284.572 432.744 285.449 431.675 285.449Z" fill="black"/>
<path opacity="0.1" d="M431.675 291.982C430.606 291.982 429.739 291.105 429.739 290.023C429.739 288.941 430.606 288.064 431.675 288.064C432.744 288.064 433.61 288.941 433.61 290.023C433.61 291.105 432.744 291.982 431.675 291.982Z" fill="black"/>
<path opacity="0.1" d="M431.675 298.508C430.606 298.508 429.739 297.631 429.739 296.549C429.739 295.467 430.606 294.59 431.675 294.59C432.744 294.59 433.61 295.467 433.61 296.549C433.61 297.631 432.744 298.508 431.675 298.508Z" fill="black"/>
<path opacity="0.1" d="M431.675 305.034C430.606 305.034 429.739 304.157 429.739 303.075C429.739 301.994 430.606 301.116 431.675 301.116C432.744 301.116 433.61 301.994 433.61 303.075C433.61 304.157 432.744 305.034 431.675 305.034Z" fill="black"/>
<path opacity="0.1" d="M431.675 311.56C430.606 311.56 429.739 310.683 429.739 309.601C429.739 308.52 430.606 307.642 431.675 307.642C432.744 307.642 433.61 308.52 433.61 309.601C433.61 310.683 432.744 311.56 431.675 311.56Z" fill="black"/>
<path opacity="0.1" d="M431.675 318.086C430.606 318.086 429.739 317.209 429.739 316.127C429.739 315.046 430.606 314.168 431.675 314.168C432.744 314.168 433.61 315.046 433.61 316.127C433.61 317.209 432.744 318.086 431.675 318.086Z" fill="black"/>
<path opacity="0.1" d="M431.675 324.614C430.606 324.614 429.739 323.737 429.739 322.655C429.739 321.573 430.606 320.696 431.675 320.696C432.744 320.696 433.61 321.573 433.61 322.655C433.61 323.737 432.744 324.614 431.675 324.614Z" fill="black"/>
<path opacity="0.1" d="M431.675 331.141C430.606 331.141 429.739 330.263 429.739 329.182C429.739 328.1 430.606 327.223 431.675 327.223C432.744 327.223 433.61 328.1 433.61 329.182C433.61 330.263 432.744 331.141 431.675 331.141Z" fill="black"/>
<path opacity="0.1" d="M422.649 246.29C421.58 246.29 420.714 245.413 420.714 244.331C420.714 243.249 421.58 242.372 422.649 242.372C423.718 242.372 424.585 243.249 424.585 244.331C424.585 245.413 423.718 246.29 422.649 246.29Z" fill="black"/>
<path opacity="0.1" d="M422.649 252.817C421.58 252.817 420.714 251.94 420.714 250.858C420.714 249.776 421.58 248.899 422.649 248.899C423.718 248.899 424.585 249.776 424.585 250.858C424.585 251.94 423.718 252.817 422.649 252.817Z" fill="black"/>
<path opacity="0.1" d="M422.649 259.343C421.58 259.343 420.714 258.466 420.714 257.384C420.714 256.302 421.58 255.425 422.649 255.425C423.718 255.425 424.585 256.302 424.585 257.384C424.585 258.466 423.718 259.343 422.649 259.343Z" fill="black"/>
<path opacity="0.1" d="M422.649 265.869C421.58 265.869 420.714 264.992 420.714 263.91C420.714 262.828 421.58 261.951 422.649 261.951C423.718 261.951 424.585 262.828 424.585 263.91C424.585 264.992 423.718 265.869 422.649 265.869Z" fill="black"/>
<path opacity="0.1" d="M422.649 272.396C421.58 272.396 420.714 271.519 420.714 270.437C420.714 269.355 421.58 268.478 422.649 268.478C423.718 268.478 424.585 269.355 424.585 270.437C424.585 271.519 423.718 272.396 422.649 272.396Z" fill="black"/>
<path opacity="0.1" d="M422.649 278.922C421.58 278.922 420.714 278.045 420.714 276.963C420.714 275.881 421.58 275.004 422.649 275.004C423.718 275.004 424.585 275.881 424.585 276.963C424.585 278.045 423.718 278.922 422.649 278.922Z" fill="black"/>
<path opacity="0.1" d="M422.649 285.449C421.58 285.449 420.714 284.572 420.714 283.49C420.714 282.408 421.58 281.531 422.649 281.531C423.718 281.531 424.585 282.408 424.585 283.49C424.585 284.572 423.718 285.449 422.649 285.449Z" fill="black"/>
<path opacity="0.1" d="M422.649 291.982C421.58 291.982 420.714 291.105 420.714 290.023C420.714 288.941 421.58 288.064 422.649 288.064C423.718 288.064 424.585 288.941 424.585 290.023C424.585 291.105 423.718 291.982 422.649 291.982Z" fill="black"/>
<path opacity="0.1" d="M422.649 298.508C421.58 298.508 420.714 297.631 420.714 296.549C420.714 295.467 421.58 294.59 422.649 294.59C423.718 294.59 424.585 295.467 424.585 296.549C424.585 297.631 423.718 298.508 422.649 298.508Z" fill="black"/>
<path opacity="0.1" d="M422.649 305.034C421.58 305.034 420.714 304.157 420.714 303.075C420.714 301.994 421.58 301.116 422.649 301.116C423.718 301.116 424.585 301.994 424.585 303.075C424.585 304.157 423.718 305.034 422.649 305.034Z" fill="black"/>
<path opacity="0.1" d="M422.649 311.56C421.58 311.56 420.714 310.683 420.714 309.601C420.714 308.52 421.58 307.642 422.649 307.642C423.718 307.642 424.585 308.52 424.585 309.601C424.585 310.683 423.718 311.56 422.649 311.56Z" fill="black"/>
<path opacity="0.1" d="M422.649 318.086C421.58 318.086 420.714 317.209 420.714 316.127C420.714 315.046 421.58 314.168 422.649 314.168C423.718 314.168 424.585 315.046 424.585 316.127C424.585 317.209 423.718 318.086 422.649 318.086Z" fill="black"/>
<path opacity="0.1" d="M422.649 324.614C421.58 324.614 420.714 323.737 420.714 322.655C420.714 321.573 421.58 320.696 422.649 320.696C423.718 320.696 424.585 321.573 424.585 322.655C424.585 323.737 423.718 324.614 422.649 324.614Z" fill="black"/>
<path opacity="0.1" d="M422.649 331.141C421.58 331.141 420.714 330.263 420.714 329.182C420.714 328.1 421.58 327.223 422.649 327.223C423.718 327.223 424.585 328.1 424.585 329.182C424.585 330.263 423.718 331.141 422.649 331.141Z" fill="black"/>
<path opacity="0.1" d="M413.618 246.29C412.549 246.29 411.683 245.413 411.683 244.331C411.683 243.249 412.549 242.372 413.618 242.372C414.687 242.372 415.554 243.249 415.554 244.331C415.554 245.413 414.687 246.29 413.618 246.29Z" fill="black"/>
<path opacity="0.1" d="M413.618 252.817C412.549 252.817 411.683 251.94 411.683 250.858C411.683 249.776 412.549 248.899 413.618 248.899C414.687 248.899 415.554 249.776 415.554 250.858C415.554 251.94 414.687 252.817 413.618 252.817Z" fill="black"/>
<path opacity="0.1" d="M413.618 259.343C412.549 259.343 411.683 258.466 411.683 257.384C411.683 256.302 412.549 255.425 413.618 255.425C414.687 255.425 415.554 256.302 415.554 257.384C415.554 258.466 414.687 259.343 413.618 259.343Z" fill="black"/>
<path opacity="0.1" d="M413.618 265.869C412.549 265.869 411.683 264.992 411.683 263.91C411.683 262.828 412.549 261.951 413.618 261.951C414.687 261.951 415.554 262.828 415.554 263.91C415.554 264.992 414.687 265.869 413.618 265.869Z" fill="black"/>
<path opacity="0.1" d="M413.618 272.396C412.549 272.396 411.683 271.519 411.683 270.437C411.683 269.355 412.549 268.478 413.618 268.478C414.687 268.478 415.554 269.355 415.554 270.437C415.554 271.519 414.687 272.396 413.618 272.396Z" fill="black"/>
<path opacity="0.1" d="M413.618 278.922C412.549 278.922 411.683 278.045 411.683 276.963C411.683 275.881 412.549 275.004 413.618 275.004C414.687 275.004 415.554 275.881 415.554 276.963C415.554 278.045 414.687 278.922 413.618 278.922Z" fill="black"/>
<path opacity="0.1" d="M413.618 285.449C412.549 285.449 411.683 284.572 411.683 283.49C411.683 282.408 412.549 281.531 413.618 281.531C414.687 281.531 415.554 282.408 415.554 283.49C415.554 284.572 414.687 285.449 413.618 285.449Z" fill="black"/>
<path opacity="0.1" d="M413.618 291.982C412.549 291.982 411.683 291.105 411.683 290.023C411.683 288.941 412.549 288.064 413.618 288.064C414.687 288.064 415.554 288.941 415.554 290.023C415.554 291.105 414.687 291.982 413.618 291.982Z" fill="black"/>
<path opacity="0.1" d="M413.618 298.508C412.549 298.508 411.683 297.631 411.683 296.549C411.683 295.467 412.549 294.59 413.618 294.59C414.687 294.59 415.554 295.467 415.554 296.549C415.554 297.631 414.687 298.508 413.618 298.508Z" fill="black"/>
<path opacity="0.1" d="M413.618 305.034C412.549 305.034 411.683 304.157 411.683 303.075C411.683 301.994 412.549 301.116 413.618 301.116C414.687 301.116 415.554 301.994 415.554 303.075C415.554 304.157 414.687 305.034 413.618 305.034Z" fill="black"/>
<path opacity="0.1" d="M413.618 311.56C412.549 311.56 411.683 310.683 411.683 309.601C411.683 308.52 412.549 307.642 413.618 307.642C414.687 307.642 415.554 308.52 415.554 309.601C415.554 310.683 414.687 311.56 413.618 311.56Z" fill="black"/>
<path opacity="0.1" d="M413.618 318.086C412.549 318.086 411.683 317.209 411.683 316.127C411.683 315.046 412.549 314.168 413.618 314.168C414.687 314.168 415.554 315.046 415.554 316.127C415.554 317.209 414.687 318.086 413.618 318.086Z" fill="black"/>
<path opacity="0.1" d="M413.618 324.614C412.549 324.614 411.683 323.737 411.683 322.655C411.683 321.573 412.549 320.696 413.618 320.696C414.687 320.696 415.554 321.573 415.554 322.655C415.554 323.737 414.687 324.614 413.618 324.614Z" fill="black"/>
<path opacity="0.1" d="M413.618 331.141C412.549 331.141 411.683 330.263 411.683 329.182C411.683 328.1 412.549 327.223 413.618 327.223C414.687 327.223 415.554 328.1 415.554 329.182C415.554 330.263 414.687 331.141 413.618 331.141Z" fill="black"/>
<path opacity="0.1" d="M403.353 245.839C403.636 246.076 403.979 246.226 404.343 246.273C404.707 246.319 405.077 246.26 405.409 246.102C405.741 245.945 406.022 245.694 406.219 245.381C406.416 245.068 406.521 244.704 406.521 244.333C406.524 243.841 406.34 243.366 406.006 243.008C405.756 243.233 405.512 243.48 405.268 243.712C404.598 244.405 403.966 245.107 403.353 245.839Z" fill="black"/>
<path opacity="0.1" d="M404.593 252.817C403.524 252.817 402.658 251.94 402.658 250.858C402.658 249.776 403.524 248.899 404.593 248.899C405.662 248.899 406.529 249.776 406.529 250.858C406.529 251.94 405.662 252.817 404.593 252.817Z" fill="black"/>
<path opacity="0.1" d="M404.593 259.343C403.524 259.343 402.658 258.466 402.658 257.384C402.658 256.302 403.524 255.425 404.593 255.425C405.662 255.425 406.529 256.302 406.529 257.384C406.529 258.466 405.662 259.343 404.593 259.343Z" fill="black"/>
<path opacity="0.1" d="M404.593 265.869C403.524 265.869 402.658 264.992 402.658 263.91C402.658 262.828 403.524 261.951 404.593 261.951C405.662 261.951 406.529 262.828 406.529 263.91C406.529 264.992 405.662 265.869 404.593 265.869Z" fill="black"/>
<path opacity="0.1" d="M404.593 272.396C403.524 272.396 402.658 271.519 402.658 270.437C402.658 269.355 403.524 268.478 404.593 268.478C405.662 268.478 406.529 269.355 406.529 270.437C406.529 271.519 405.662 272.396 404.593 272.396Z" fill="black"/>
<path opacity="0.1" d="M404.593 278.922C403.524 278.922 402.658 278.045 402.658 276.963C402.658 275.881 403.524 275.004 404.593 275.004C405.662 275.004 406.529 275.881 406.529 276.963C406.529 278.045 405.662 278.922 404.593 278.922Z" fill="black"/>
<path opacity="0.1" d="M404.593 285.449C403.524 285.449 402.658 284.572 402.658 283.49C402.658 282.408 403.524 281.531 404.593 281.531C405.662 281.531 406.529 282.408 406.529 283.49C406.529 284.572 405.662 285.449 404.593 285.449Z" fill="black"/>
<path opacity="0.1" d="M404.593 291.982C403.524 291.982 402.658 291.105 402.658 290.023C402.658 288.941 403.524 288.064 404.593 288.064C405.662 288.064 406.529 288.941 406.529 290.023C406.529 291.105 405.662 291.982 404.593 291.982Z" fill="black"/>
<path opacity="0.1" d="M404.593 298.508C403.524 298.508 402.658 297.631 402.658 296.549C402.658 295.467 403.524 294.59 404.593 294.59C405.662 294.59 406.529 295.467 406.529 296.549C406.529 297.631 405.662 298.508 404.593 298.508Z" fill="black"/>
<path opacity="0.1" d="M404.593 305.034C403.524 305.034 402.658 304.157 402.658 303.075C402.658 301.994 403.524 301.116 404.593 301.116C405.662 301.116 406.529 301.994 406.529 303.075C406.529 304.157 405.662 305.034 404.593 305.034Z" fill="black"/>
<path opacity="0.1" d="M404.593 311.56C403.524 311.56 402.658 310.683 402.658 309.601C402.658 308.52 403.524 307.642 404.593 307.642C405.662 307.642 406.529 308.52 406.529 309.601C406.529 310.683 405.662 311.56 404.593 311.56Z" fill="black"/>
<path opacity="0.1" d="M404.593 318.086C403.524 318.086 402.658 317.209 402.658 316.127C402.658 315.046 403.524 314.168 404.593 314.168C405.662 314.168 406.529 315.046 406.529 316.127C406.529 317.209 405.662 318.086 404.593 318.086Z" fill="black"/>
<path opacity="0.1" d="M404.593 324.614C403.524 324.614 402.658 323.737 402.658 322.655C402.658 321.573 403.524 320.696 404.593 320.696C405.662 320.696 406.529 321.573 406.529 322.655C406.529 323.737 405.662 324.614 404.593 324.614Z" fill="black"/>
<path opacity="0.1" d="M402.845 328.335C403.581 329.276 404.37 330.175 405.206 331.027C405.51 330.925 405.784 330.748 406.004 330.513C406.224 330.277 406.383 329.989 406.466 329.676C406.549 329.363 406.554 329.034 406.481 328.718C406.407 328.402 406.257 328.11 406.044 327.867C405.832 327.625 405.563 327.439 405.262 327.328C404.961 327.217 404.637 327.182 404.32 327.229C404.003 327.275 403.702 327.401 403.444 327.594C403.187 327.787 402.981 328.041 402.845 328.335Z" fill="black"/>
<path d="M427.786 305.683H429.117C431.241 305.683 432.964 307.427 432.964 309.577V389.247C432.964 391.397 431.241 393.141 429.117 393.141H427.786C425.661 393.141 423.939 391.397 423.939 389.247V309.577C423.939 307.427 425.661 305.683 427.786 305.683Z" fill="#54576B"/>
<path d="M402.447 381.392H454.452C457.186 381.392 459.403 383.636 459.403 386.403V388.13C459.403 390.898 457.186 393.141 454.452 393.141H402.447C399.713 393.141 397.496 390.898 397.496 388.13V386.403C397.496 383.636 399.713 381.392 402.447 381.392Z" fill="#54576B"/>
<path opacity="0.2" d="M306.253 378.784C305.719 378.784 305.285 378.345 305.285 377.804C305.285 377.263 305.719 376.824 306.253 376.824C306.788 376.824 307.221 377.263 307.221 377.804C307.221 378.345 306.788 378.784 306.253 378.784Z" fill="black"/>
<path d="M319.082 50.9168C329.729 31.4997 351.344 18.1867 376.183 18.1867C411.558 18.1867 440.346 45.1241 440.346 78.2349H444.891C444.891 42.6077 414.077 13.6198 376.216 13.6198C354.295 13.6198 334.741 23.3319 322.158 38.4287C321.127 41.8117 320.34 45.2719 319.56 48.7256C319.387 49.461 319.224 50.1907 319.082 50.9168Z" fill="#F2F2F2"/>
<path d="M435.296 59.1552H429.356V100.738H435.296C437.542 100.738 439.766 100.29 441.841 99.4203C443.916 98.5504 445.801 97.2754 447.389 95.6681C448.977 94.0607 450.237 92.1525 451.097 90.0525C451.956 87.9524 452.398 85.7015 452.398 83.4284V76.5065C452.404 74.2299 451.965 71.9745 451.108 69.8696C450.251 67.7647 448.992 65.8516 447.404 64.2398C445.815 62.628 443.928 61.3493 441.85 60.4768C439.773 59.6043 437.545 59.1551 435.296 59.1552Z" fill="#F2F2F2"/>
<path d="M428.609 59.1904H430.101C432.474 59.1904 434.397 61.137 434.397 63.5382V96.3901C434.397 98.7913 432.474 100.738 430.101 100.738H428.609C426.237 100.738 424.314 98.7913 424.314 96.3901V63.5382C424.314 61.137 426.237 59.1904 428.609 59.1904Z" fill="#535461"/>
<path d="M410.762 358.172L252.305 341.828L250.369 373.155L322.213 379.048C327.164 379.461 332.15 379.076 336.982 377.906L410.893 360.221C411.129 360.163 411.336 360.022 411.48 359.824C411.623 359.627 411.693 359.384 411.677 359.139C411.661 358.895 411.561 358.663 411.393 358.486C411.226 358.309 411.002 358.197 410.761 358.17L410.762 358.172Z" fill="#090814"/>
<path opacity="0.3" d="M373.192 359.313L289.404 350.672L288.38 367.235L326.366 370.357C328.986 370.573 331.624 370.366 334.179 369.744L373.259 360.392C373.385 360.362 373.495 360.288 373.571 360.183C373.648 360.079 373.685 359.95 373.677 359.82C373.668 359.691 373.614 359.568 373.525 359.475C373.435 359.381 373.316 359.323 373.188 359.31L373.192 359.313Z" fill="white"/>
<path d="M284.344 218.782L121.995 216.755C117.959 217.023 114.147 218.731 111.238 221.574C109.966 222.809 109 224.329 108.417 226.012C107.834 227.694 107.651 229.492 107.882 231.26L126.298 357.304C127.208 363.553 133.422 368.373 141.068 368.752L307.004 377.195C311.584 377.49 316.101 375.989 319.618 373.003C322.841 370.119 324.311 366.189 323.619 362.313L301.586 229.85C300.359 222.963 292.766 218.09 284.344 218.782Z" fill="#090814"/>
<path d="M208.039 285.367C203.766 285.367 200.303 281.861 200.303 277.537C200.303 273.212 203.766 269.707 208.039 269.707C212.312 269.707 215.776 273.212 215.776 277.537C215.776 281.861 212.312 285.367 208.039 285.367Z" fill="#F2F2F2"/>
</svg>
